<?xml version="1.0" encoding="UTF-8" standalone="no"?>
<svg
   width="210mm"
   height="297mm"
   viewBox="0 0 210 297"
   version="1.1"
   id="svg5"
   xmlns="http://www.w3.org/2000/svg"
   xmlns:svg="http://www.w3.org/2000/svg">
  <defs
     id="defs2" />
  <g
     id="layer1">
    <path
       style="fill:none;stroke:#000000;stroke-width:0.264583px;stroke-linecap:butt;stroke-linejoin:miter;stroke-opacity:1"
       d="M 58.570679,66.345548 C 46.378894,68.114407 33.399923,72.562277 26.952879,83.968586 26.065295,85.538925 25.307827,87.35026 25.397906,89.151832 25.522704,91.647797 30.28738,99.483245 31.617801,100.55497 46.469482,112.51883 72.115023,120.74667 85.523558,101.59162 86.966183,99.53073 87.103499,96.801865 87.596857,94.335078 87.787474,93.382001 90.467327,79.629483 88.633508,76.712042 83.231423,68.117814 76.924418,63.364353 67.382199,61.162302 66.120843,60.871221 59.672428,64.142545 58.052355,64.790576"
       id="path44" />
    <path
       style="fill:none;stroke:#000000;stroke-width:0.264583px;stroke-linecap:butt;stroke-linejoin:miter;stroke-opacity:1"
       d="M 103.66492,46.649213 C 99.024796,48.699491 94.18952,51.280409 90.18848,54.424082 85.092949,58.427715 79.586449,62.868979 76.712042,68.937171 73.453428,75.816467 87.343688,78.444825 90.706804,77.230366 94.674035,75.797756 97.779614,72.608767 101.0733,69.973821 105.64369,66.317507 112.51995,61.16611 111.95811,54.424082 111.87084,53.376766 111.94304,52.236758 111.43979,51.314135 109.80412,48.315406 106.52224,47.792142 103.66492,46.649213 Z"
       id="path48" />
    <path
       style="fill:none;stroke:#000000;stroke-width:0.264583px;stroke-linecap:butt;stroke-linejoin:miter;stroke-opacity:1"
       d="M 65.827224,107.29319 C 61.81994,116.8434 60.611133,124.28478 62.198953,134.7644 62.550994,137.08787 62.691475,139.76376 64.272252,141.50262 68.08458,145.69618 72.691825,149.31021 77.74869,151.86911 87.167679,156.63534 97.064525,160.6629 107.29319,163.27225 118.78777,166.20454 128.84305,165.1942 139.94764,163.27225 145.1561,162.37079 150.80765,162.60096 155.49738,160.1623 162.79752,156.36623 167.87274,149.67273 167.41885,141.50262 167.22127,137.94626 166.88406,134.04407 164.82722,131.13612 159.11742,123.06364 153.21878,121.63257 146.68586,116.10471 140.00244,110.44951 135.4984,104.17577 126.98953,100.55497 121.99747,98.430693 102.47675,97.690875 98.481675,97.445024 86.836418,96.728393 80.748472,94.504842 71.528796,100.03665 69.81232,101.06653 65.827224,102.60068 65.827224,105.21989"
       id="path50" />
    <path
       style="fill:none;stroke:#000000;stroke-width:0.264583px;stroke-linecap:butt;stroke-linejoin:miter;stroke-opacity:1"
       d="M 161.19895,131.13612 C 155.84765,124.43115 165.38667,112.50581 172.60209,117.65969 179.42112,122.53042 184.02584,138.83989 170.01047,136.83769 167.41762,136.46729 163.71175,134.46582 161.19895,131.13612 Z"
       id="path52" />
    <path
       style="fill:none;stroke:#000000;stroke-width:0.264583px;stroke-linecap:butt;stroke-linejoin:miter;stroke-opacity:1"
       d="M 81.895288,151.35078 C 79.130889,158.60733 75.989372,165.73122 73.602092,173.12042 72.050941,177.9216 68.589744,196.59238 72.565444,201.62827 80.011631,211.06011 92.452385,215.26894 100.55497,202.66492 108.32146,190.58372 104.90638,168.41658 101.0733,156.53403 99.042266,150.23784 91.146436,145.51141 85.005234,148.24084 83.665548,148.83625 82.931936,150.31413 81.895288,151.35078 Z"
       id="path54" />
    <path
       style="fill:none;stroke:#000000;stroke-width:0.264583px;stroke-linecap:butt;stroke-linejoin:miter;stroke-opacity:1"
       d="M 145.13089,153.42408 C 143.92146,156.0157 142.3,158.45242 141.50262,161.19895 139.38041,168.50876 139.3248,179.3988 143.05759,186.07853 146.00964,191.36115 157.8006,198.2661 161.71728,200.59162 164.36133,202.16153 169.15811,204.88795 171.56544,200.0733 172.72445,197.75528 171.9915,194.85479 171.56544,192.29843 168.11547,171.5986 169.57821,170.86473 157.57068,157.57068 153.4026,152.95602 150.36303,151.33123 145.13089,153.42408 Z"
       id="path56" />
  </g>
</svg>
