<?xml version="1.0" encoding="UTF-8" standalone="no"?>
<svg
   width="210mm"
   height="297mm"
   viewBox="0 0 210 297"
   version="1.1"
   id="svg16"
   inkscape:version="1.1-alpha (65d249ff, 2021-01-17)"
   sodipodi:docname="sample_flower.svg"
   xmlns:inkscape="http://www.inkscape.org/namespaces/inkscape"
   xmlns:sodipodi="http://sodipodi.sourceforge.net/DTD/sodipodi-0.dtd"
   xmlns="http://www.w3.org/2000/svg"
   xmlns:svg="http://www.w3.org/2000/svg">
  <sodipodi:namedview
     id="namedview18"
     pagecolor="#ffffff"
     bordercolor="#666666"
     borderopacity="1.0"
     objecttolerance="10.0"
     gridtolerance="10.0"
     guidetolerance="10.0"
     inkscape:pageshadow="2"
     inkscape:pageopacity="0.0"
     inkscape:pagecheckerboard="0"
     inkscape:document-units="mm"
     showgrid="false"
     inkscape:zoom="0.50511364"
     inkscape:cx="395.95051"
     inkscape:cy="561.25984"
     inkscape:window-width="1338"
     inkscape:window-height="789"
     inkscape:window-x="0"
     inkscape:window-y="25"
     inkscape:window-maximized="0"
     inkscape:current-layer="layer1" />
  <defs
     id="defs13" />
  <g
     inkscape:label="レイヤー 1"
     inkscape:groupmode="layer"
     id="layer1">
    <path
       style="fill:none;stroke:#000000;stroke-width:0.264583px;stroke-linecap:butt;stroke-linejoin:miter;stroke-opacity:1"
       d="M 87.476189,70.190476 C 78.421562,70.345193 69.930681,77.368597 69.142855,86.428571 68.94622,88.689877 68.519283,91.055588 69.142855,93.238094 69.622529,94.916947 71.167931,96.08723 72.285714,97.42857 78.974732,105.45539 77.774487,103.09011 89.047618,111.04762 90.987802,112.41716 92.590246,114.39266 94.809523,115.23809 98.434122,116.61889 115.40908,110.22861 117.85714,108.42857 127.16304,101.586 127.72408,97.857087 126.7619,86.95238 126.58228,84.916612 125.96585,82.768053 124.66666,81.190475 123.37224,79.618667 121.1228,79.177101 119.42857,78.047619 107.92185,70.37647 101.76108,67.016055 87.476189,70.190476 Z"
       id="path147" />
    <path
       style="fill:none;stroke:#000000;stroke-width:0.264583px;stroke-linecap:butt;stroke-linejoin:miter;stroke-opacity:1"
       d="M 92.714285,115.23809 C 89.673974,121.31871 88.123018,123.61619 86.95238,131.47619 86.28314,135.96966 86.790857,140.56666 86.428571,145.09524 85.20268,160.41888 82.576047,161.3073 85.380951,179.66666 86.214827,185.12477 88.718267,190.197 90.619047,195.38095 90.799371,195.87274 92.000622,195.86914 92.190476,195.38095 96.545923,184.18123 97.124651,172.08087 97.952379,160.28571 98.295491,155.39639 98.624082,150.50595 98.999999,145.61904 99.147912,143.69617 99.755874,141.77168 99.523808,139.85714 97.12922,120.10178 98.440239,134.51633 94.809523,124.14286 93.975422,121.75971 93.268688,118.01011 92.714285,115.23809 Z"
       id="path149" />
    <path
       style="fill:none;stroke:#000000;stroke-width:0.264583px;stroke-linecap:butt;stroke-linejoin:miter;stroke-opacity:1"
       d="M 88,193.28571 C 67.234521,172.52023 112.16794,217.67149 51.333333,152.42857 49.879855,150.86977 48.162905,149.27882 46.095237,148.7619 45.417679,148.59251 43.799312,148.09294 43.999999,148.7619 47.841365,161.56645 58.693478,170.69226 68.095237,179.66666 70.238622,181.71262 71.927735,184.29052 74.380952,185.95238 77.373797,187.97979 87.231312,192.7619 92.190476,192.7619"
       id="path151" />
    <path
       style="fill:none;stroke:#000000;stroke-width:0.264583px;stroke-linecap:butt;stroke-linejoin:miter;stroke-opacity:1"
       d="M 92.190474,192.7619 C 162.9721,152.51353 103.31077,190.79883 123.09524,172.33333 124.12434,171.37283 125.53968,170.93651 126.7619,170.23809 128.15873,169.19047 129.71775,168.32987 130.95238,167.09524 132.36008,165.68754 133.25463,163.83064 134.61905,162.38095 136.06002,160.84991 137.78347,159.61118 139.33333,158.19047 139.8794,157.68991 140.71624,155.90266 140.90476,156.61905 147.4926,181.65285 129.32424,180.71928 113.14286,189.61905 107.79715,192.55918 104.05424,194.88778 97.952379,195.90476 96.563838,196.13618 95.127568,196.76998 93.761903,196.42857 92.80369,196.18902 92.365077,195.03174 91.666665,194.33333 91.142856,193.80952 89.860984,193.46467 90.095238,192.7619 90.316094,192.09933 91.492061,192.7619 92.190474,192.7619"
       id="path153" />
    <path
       style="fill:none;stroke:#000000;stroke-width:0.264583px;stroke-linecap:butt;stroke-linejoin:miter;stroke-opacity:1"
       d="M 86.428571,110 C 80.178187,115.59517 71.176403,125.13906 61.809523,117.33333 60.468184,116.21555 60.911197,113.59245 61.809523,112.09524 64.400133,107.77755 69.277406,105.97267 73.857143,105.28571 76.665205,104.8645 78.380981,105.90475 80.666666,104.7619"
       id="path155" />
    <path
       style="fill:none;stroke:#000000;stroke-width:0.264583px;stroke-linecap:butt;stroke-linejoin:miter;stroke-opacity:1"
       d="M 72.809522,99.523808 C 70.190476,99.873016 67.577517,100.27141 64.952379,100.57143 62.933878,100.80211 47.76244,103.84837 45.047619,100.04762 39.168927,91.817448 61.881077,90.898257 64.952379,90.619047 67.013743,90.431651 68.425115,89.642729 68.619046,90.095238 73.251392,100.90404 64.449692,86.722158 71.238093,96.904761"
       id="path157" />
    <path
       style="fill:none;stroke:#000000;stroke-width:0.264583px;stroke-linecap:butt;stroke-linejoin:miter;stroke-opacity:1"
       d="M 67.571429,88 C 63.675196,85.599499 59.005602,84.898224 55,82.761904 52.542111,81.451031 46.138181,77.918788 47.666666,73.333331 48.037056,72.222166 49.716319,72.182367 50.809524,71.761905 56.660203,69.511642 63.016576,70.825888 68.095237,74.380952 68.702107,74.805761 69.031452,75.571254 69.666667,75.952381 70.741576,76.597326 72.243118,74.197894 71.761905,78.047619 71.232897,82.279674 69.287241,84.56837 67.571429,88 Z"
       id="path159" />
    <path
       style="fill:none;stroke:#000000;stroke-width:0.264583px;stroke-linecap:butt;stroke-linejoin:miter;stroke-opacity:1"
       d="M 71.238093,75.428569 C 70.190476,73.15873 69.136847,70.89165 68.095237,68.619046 67.216204,66.701159 65.889943,64.92591 65.476191,62.857141 64.996795,60.460167 64.916316,57.903273 65.476191,55.523809 66.191343,52.484411 73.730643,52.739575 75.428569,53.95238 78.742968,56.319808 81.469885,59.225486 83.285713,62.857141 84.112681,64.511081 85.614475,67.861714 85.380951,68.095237 84.763635,68.712553 83.608854,67.883499 82.761904,68.095237 78.271311,69.217886 73.386661,71.131437 71.238093,75.428569 Z"
       id="path161" />
    <path
       style="fill:none;stroke:#000000;stroke-width:0.264583px;stroke-linecap:butt;stroke-linejoin:miter;stroke-opacity:1"
       d="M 93.238094,51.333333 C 94.573674,52.157563 84.881005,61.857249 86.95238,65.999999 87.030464,66.15617 87.301587,65.999999 87.476189,65.999999 88.174601,65.999999 88.893868,66.169388 89.571427,65.999999 97.614395,63.989256 81.710849,65.557039 96.380952,64.42857 97.673429,64.32915 103.17321,64.966196 103.19048,64.952379 104.21298,64.134375 103.89863,53.329654 103.19048,52.904762 100.73266,51.430073 96.151897,52.233573 93.761903,53.428571"
       id="path163" />
    <path
       style="fill:none;stroke:#000000;stroke-width:0.264583px;stroke-linecap:butt;stroke-linejoin:miter;stroke-opacity:1"
       d="M 108.42857,54.476189 C 98.510539,67.916636 99.803187,63.603181 113.14286,69.666667 113.64551,69.895145 114.29012,69.837003 114.71428,70.190476 116.47793,71.660183 116.42295,73.719906 117.33333,72.809522 117.70372,72.439135 117.1388,71.72444 117.33333,71.238093 117.85614,69.931081 118.89259,68.873094 119.42857,67.571429 119.78479,66.706321 122.81487,59.022254 120.47619,57.619047 119.85887,57.248657 119.07549,57.284656 118.38095,57.095238 114.11553,55.93194 110.23093,55.44214 105.80952,55"
       id="path165" />
    <path
       style="fill:none;stroke:#000000;stroke-width:0.264583px;stroke-linecap:butt;stroke-linejoin:miter;stroke-opacity:1"
       d="M 127.28571,62.857141 C 123.65464,66.209433 120.25385,69.31762 117.33333,73.333331 116.96305,73.842464 116.67898,74.413173 116.28571,74.90476 115.97721,75.290396 114.84301,75.656069 115.23809,75.952381 116.74252,77.080699 119.09815,76.768007 120.47619,78.047619 123.32115,80.68937 122.6673,86.642537 124.14286,85.904762 125.71038,85.121 139.20563,77.190255 139.33333,74.380952 139.62571,67.948608 131.49753,65.197042 127.28571,62.857141 Z"
       id="path167" />
    <path
       style="fill:none;stroke:#000000;stroke-width:0.264583px;stroke-linecap:butt;stroke-linejoin:miter;stroke-opacity:1"
       d="M 126.7619,85.380951 C 126.93651,88.174601 127.16413,90.965445 127.28571,93.761903 127.3388,94.982973 127.42068,96.213823 127.28571,97.42857 127.2426,97.816608 126.44956,98.241934 126.7619,98.47619 127.81793,99.268205 142.90469,101.13351 143.52381,99.523808 144.28633,97.541253 144.30796,95.345831 144.57143,93.238094 144.65805,92.545073 145.09704,91.602765 144.57143,91.142856 143.90077,90.556034 128.11915,85.865681 126.7619,85.380951 Z"
       id="path169" />
    <path
       style="fill:none;stroke:#000000;stroke-width:0.264583px;stroke-linecap:butt;stroke-linejoin:miter;stroke-opacity:1"
       d="M 127.28571,99.523808 C 123.72241,101.58726 120.83666,105.27895 117.33333,107.38095 116.66376,107.78269 114.73371,107.83248 115.23809,108.42857 118.63369,112.44154 128.73133,118.74893 134.61905,118.38095 135.36463,118.33435 138.08127,112.79811 138.28571,111.57143 138.31751,111.38064 129.88368,103.42075 127.28571,99.523808 Z"
       id="path171" />
    <path
       style="fill:none;stroke:#000000;stroke-width:0.264583px;stroke-linecap:butt;stroke-linejoin:miter;stroke-opacity:1"
       d="M 115.23809,111.57143 C 111.02785,113.20746 106.4629,113.53609 102.14285,114.71428 101.07748,115.00484 98.999999,114.65761 98.999999,115.7619 98.999999,118.6902 107.49506,126.61892 108.42857,127.28571 108.75623,127.51975 116.10988,130.35971 117.33333,129.38095 121.29652,126.2104 119.1305,116.99393 117.33333,113.14286 116.96415,112.35174 115.93651,112.09524 115.23809,111.57143 Z"
       id="path173" />
    <path
       style="fill:none;stroke:#000000;stroke-width:0.264583px;stroke-linecap:butt;stroke-linejoin:miter;stroke-opacity:1"
       d="M 86.428571,110 C 85.031746,115.4127 83.504311,120.79336 82.238095,126.23809 79.492328,138.04488 84.438642,135.56135 92.190476,127.80952 93.869755,126.13024 94.817095,123.83488 96.380952,122.04762 96.625406,121.76824 99.829627,119.90689 100.04762,118.38095 100.17108,117.51671 100.87583,116.03798 100.04762,115.7619 83.001362,110.07982 106.9227,127.5664 86.428571,110"
       id="path175" />
  </g>
</svg>
